%TF.GenerationSoftware,KiCad,Pcbnew,10.0.1*%
%TF.CreationDate,2026-05-15T12:12:33+03:00*%
%TF.ProjectId,kisrak-m1,6b697372-616b-42d6-9d31-2e6b69636164,rev?*%
%TF.SameCoordinates,Original*%
%TF.FileFunction,Soldermask,Top*%
%TF.FilePolarity,Negative*%
%FSLAX46Y46*%
G04 Gerber Fmt 4.6, Leading zero omitted, Abs format (unit mm)*
G04 Created by KiCad (PCBNEW 10.0.1) date 2026-05-15 12:12:33*
%MOMM*%
%LPD*%
G01*
G04 APERTURE LIST*
G04 Aperture macros list*
%AMRoundRect*
0 Rectangle with rounded corners*
0 $1 Rounding radius*
0 $2 $3 $4 $5 $6 $7 $8 $9 X,Y pos of 4 corners*
0 Add a 4 corners polygon primitive as box body*
4,1,4,$2,$3,$4,$5,$6,$7,$8,$9,$2,$3,0*
0 Add four circle primitives for the rounded corners*
1,1,$1+$1,$2,$3*
1,1,$1+$1,$4,$5*
1,1,$1+$1,$6,$7*
1,1,$1+$1,$8,$9*
0 Add four rect primitives between the rounded corners*
20,1,$1+$1,$2,$3,$4,$5,0*
20,1,$1+$1,$4,$5,$6,$7,0*
20,1,$1+$1,$6,$7,$8,$9,0*
20,1,$1+$1,$8,$9,$2,$3,0*%
G04 Aperture macros list end*
%ADD10RoundRect,0.200000X-0.200000X0.750000X-0.200000X-0.750000X0.200000X-0.750000X0.200000X0.750000X0*%
%ADD11RoundRect,0.250000X1.400000X2.000000X-1.400000X2.000000X-1.400000X-2.000000X1.400000X-2.000000X0*%
%ADD12RoundRect,0.200000X-0.750000X-0.200000X0.750000X-0.200000X0.750000X0.200000X-0.750000X0.200000X0*%
%ADD13RoundRect,0.250000X-0.550000X1.500000X-0.550000X-1.500000X0.550000X-1.500000X0.550000X1.500000X0*%
%ADD14RoundRect,0.250000X-0.350000X-0.450000X0.350000X-0.450000X0.350000X0.450000X-0.350000X0.450000X0*%
%ADD15C,1.700000*%
%ADD16R,1.700000X1.700000*%
%ADD17RoundRect,0.250000X-0.337500X-0.475000X0.337500X-0.475000X0.337500X0.475000X-0.337500X0.475000X0*%
%ADD18RoundRect,0.250000X0.250000X0.250000X-0.250000X0.250000X-0.250000X-0.250000X0.250000X-0.250000X0*%
%ADD19RoundRect,0.250000X0.337500X0.475000X-0.337500X0.475000X-0.337500X-0.475000X0.337500X-0.475000X0*%
%ADD20RoundRect,0.250000X-2.000000X1.400000X-2.000000X-1.400000X2.000000X-1.400000X2.000000X1.400000X0*%
%ADD21RoundRect,0.250000X0.350000X0.450000X-0.350000X0.450000X-0.350000X-0.450000X0.350000X-0.450000X0*%
%ADD22RoundRect,0.200000X0.750000X0.200000X-0.750000X0.200000X-0.750000X-0.200000X0.750000X-0.200000X0*%
%ADD23RoundRect,0.250000X-1.400000X-2.000000X1.400000X-2.000000X1.400000X2.000000X-1.400000X2.000000X0*%
%ADD24RoundRect,0.250000X0.450000X-0.350000X0.450000X0.350000X-0.450000X0.350000X-0.450000X-0.350000X0*%
%ADD25RoundRect,0.250000X0.475000X-0.337500X0.475000X0.337500X-0.475000X0.337500X-0.475000X-0.337500X0*%
%ADD26RoundRect,0.250000X-0.250000X0.250000X-0.250000X-0.250000X0.250000X-0.250000X0.250000X0.250000X0*%
%ADD27RoundRect,0.250000X0.625000X-0.400000X0.625000X0.400000X-0.625000X0.400000X-0.625000X-0.400000X0*%
%ADD28RoundRect,0.237500X0.237500X-0.250000X0.237500X0.250000X-0.237500X0.250000X-0.237500X-0.250000X0*%
%ADD29RoundRect,0.250000X0.724784X0.159099X0.159099X0.724784X-0.724784X-0.159099X-0.159099X-0.724784X0*%
%ADD30RoundRect,0.237500X0.344715X-0.008839X-0.008839X0.344715X-0.344715X0.008839X0.008839X-0.344715X0*%
%ADD31RoundRect,0.250000X-0.625000X0.400000X-0.625000X-0.400000X0.625000X-0.400000X0.625000X0.400000X0*%
%ADD32RoundRect,0.237500X-0.250000X-0.237500X0.250000X-0.237500X0.250000X0.237500X-0.250000X0.237500X0*%
%ADD33RoundRect,0.250000X0.565685X0.070711X0.070711X0.565685X-0.565685X-0.070711X-0.070711X-0.565685X0*%
G04 APERTURE END LIST*
D10*
%TO.C,Q8*%
X35100000Y-35700000D03*
X34150000Y-32700000D03*
X36050000Y-32700000D03*
%TD*%
D11*
%TO.C,D1*%
X22600000Y-25550000D03*
X22600000Y-34350000D03*
%TD*%
D10*
%TO.C,Q1*%
X39850000Y-35700000D03*
X38900000Y-32700000D03*
X40800000Y-32700000D03*
%TD*%
D12*
%TO.C,Q2*%
X24100000Y-39950000D03*
X21100000Y-40900000D03*
X21100000Y-39000000D03*
%TD*%
D13*
%TO.C,C1*%
X47850000Y-30750000D03*
X47850000Y-25150000D03*
%TD*%
D10*
%TO.C,Q4*%
X29850000Y-58200000D03*
X28900000Y-55200000D03*
X30800000Y-55200000D03*
%TD*%
D14*
%TO.C,R3*%
X43600000Y-46200000D03*
X41600000Y-46200000D03*
%TD*%
D15*
%TO.C,J1*%
X21000000Y-19700000D03*
X23540000Y-19700000D03*
X26080000Y-19700000D03*
X28620000Y-19700000D03*
X31160000Y-19700000D03*
D16*
X33700000Y-19700000D03*
%TD*%
D17*
%TO.C,C4*%
X37637500Y-49200000D03*
X35562500Y-49200000D03*
%TD*%
D18*
%TO.C,D5*%
X41350000Y-49700000D03*
X43850000Y-49700000D03*
%TD*%
D19*
%TO.C,C2*%
X39562500Y-26450000D03*
X41637500Y-26450000D03*
%TD*%
D20*
%TO.C,D4*%
X41450000Y-56700000D03*
X50250000Y-56700000D03*
%TD*%
D10*
%TO.C,Q5*%
X29600000Y-49450000D03*
X28650000Y-46450000D03*
X30550000Y-46450000D03*
%TD*%
D14*
%TO.C,R8*%
X31350000Y-28200000D03*
X29350000Y-28200000D03*
%TD*%
D21*
%TO.C,R1*%
X33350000Y-28200000D03*
X35350000Y-28200000D03*
%TD*%
D22*
%TO.C,Q3*%
X30600000Y-39950000D03*
X33600000Y-39000000D03*
X33600000Y-40900000D03*
%TD*%
D23*
%TO.C,D3*%
X49350000Y-46350000D03*
X49350000Y-37550000D03*
%TD*%
D10*
%TO.C,Q6*%
X35100000Y-58200000D03*
X34150000Y-55200000D03*
X36050000Y-55200000D03*
%TD*%
D24*
%TO.C,R4*%
X35350000Y-43950000D03*
X35350000Y-45950000D03*
%TD*%
D14*
%TO.C,R2*%
X31350000Y-24750000D03*
X29350000Y-24750000D03*
%TD*%
D11*
%TO.C,D2*%
X22850000Y-46550000D03*
X22850000Y-55350000D03*
%TD*%
D12*
%TO.C,Q7*%
X43850000Y-20200000D03*
X40850000Y-21150000D03*
X40850000Y-19250000D03*
%TD*%
D25*
%TO.C,C3*%
X41600000Y-39162500D03*
X41600000Y-41237500D03*
%TD*%
D26*
%TO.C,D6*%
X37850000Y-46450000D03*
X37850000Y-43950000D03*
%TD*%
D21*
%TO.C,R7*%
X33350000Y-24750000D03*
X35350000Y-24750000D03*
%TD*%
D10*
%TO.C,Q9*%
X29850000Y-35700000D03*
X28900000Y-32700000D03*
X30800000Y-32700000D03*
%TD*%
D27*
%TO.C,0R*%
X39850000Y-51249999D03*
X39850000Y-54350001D03*
%TD*%
D28*
%TO.C,0R*%
X36400000Y-36237500D03*
X36400000Y-38062500D03*
%TD*%
D29*
%TO.C,0R*%
X24503984Y-42453984D03*
X26696016Y-44646016D03*
%TD*%
D30*
%TO.C,0R*%
X41354765Y-42704765D03*
X42645235Y-43995235D03*
%TD*%
D31*
%TO.C,0R*%
X26850000Y-62400001D03*
X26850000Y-59299999D03*
%TD*%
D28*
%TO.C,0R*%
X39400000Y-40237500D03*
X39400000Y-42062500D03*
%TD*%
%TO.C,0R*%
X39400000Y-43037500D03*
X39400000Y-44862500D03*
%TD*%
D32*
%TO.C,0R*%
X34312500Y-29950000D03*
X32487500Y-29950000D03*
%TD*%
D33*
%TO.C,0R*%
X27757107Y-50800000D03*
X26342893Y-49385786D03*
%TD*%
M02*
